<svg width="194" height="195" viewBox="0 0 194 195" fill="none" xmlns="http://www.w3.org/2000/svg">
<path d="M3.32613 164.322C10.7321 182.395 22.8076 186.158 31.2981 182.395C47.7183 175.12 90.3721 166.992 134.179 186.099C192.199 211.406 204.544 173.225 186.027 134.604C167.51 95.9827 161.233 56.9263 182.58 35.4084C203.927 13.8906 175.992 -19.7706 126.384 15.2685C94.3253 37.9121 70.7979 32.8698 58.1639 26.4685C46.2566 20.4354 33.0143 14.1283 20.6076 19.0528C5.55297 25.0286 -0.378407 37.9846 22.5256 66.9281C54.9839 107.943 -13.2765 123.812 3.32613 164.322Z" fill="#F2F6FF"/>
<path d="M171.055 39.5614C170.858 39.811 170.636 40.0408 170.394 40.2474L153.089 55.2239L140.172 94.4561L104.163 120.769C104.163 120.769 98.0278 125.909 92.4272 126.386C91.1735 126.824 87.3752 128.302 85.2714 130.586C84.5931 131.322 79.274 147.031 71.024 169.246C70.6111 170.358 69.7976 171.275 68.7431 171.818C67.6886 172.36 66.4693 172.489 65.3246 172.179C55.0155 169.381 31.9244 163.22 20.9381 159.058C20.261 158.802 19.657 158.384 19.1787 157.841C18.7004 157.298 18.3626 156.645 18.1946 155.941C18.0266 155.237 18.0337 154.503 18.2151 153.802C18.3966 153.102 18.7469 152.456 19.2355 151.922C31.8599 138.123 58.4018 106.538 58.4018 106.538L60.2025 102.798C60.2025 102.798 71.5412 67.3707 75.2499 65.068C76.6525 63.5451 84.7199 51.7354 87.8943 43.4967C88.6157 42.2977 91.9619 37.3075 94.7647 32.999C96.7507 29.919 98.4747 27.1791 98.7687 26.3965C98.832 26.2172 98.938 26.0559 99.0775 25.9267C99.0775 25.9267 99.0687 25.9241 99.08 25.9177C100.417 24.5206 104.855 24.8362 105.071 30.14C105.311 35.9906 100.05 48.1274 98.9907 48.4581C98.4549 49.7489 96.9327 56.7008 93.9548 62.587C93.6983 63.4767 93.3153 65.7751 95.827 65.2176C98.3413 64.6512 156.496 37.2543 156.496 37.2543L163.709 32.7234C164.771 32.0358 166.035 31.7277 167.295 31.8491C168.787 32.0207 170.154 32.7637 171.11 33.9221C173.168 36.3068 171.824 38.5979 171.055 39.5614Z" fill="#407AFF"/>
<path d="M97.7053 33.9615C96.666 34.057 95.6053 33.5586 94.7653 32.9983C96.7513 29.9183 98.4753 27.1784 98.7693 26.3958C98.8326 26.2164 98.9386 26.0552 99.0781 25.9259C101.472 28.784 97.9921 33.6684 97.7053 33.9615Z" fill="#F2F6FF"/>
<path d="M157.134 27.6464L114.518 15.3628C111.546 14.5062 108.442 16.221 107.586 19.1928L81.7981 108.659C80.9415 111.63 82.6562 114.734 85.628 115.591L128.244 127.874C131.216 128.731 134.319 127.016 135.176 124.044L160.964 34.5783C161.82 31.6065 160.105 28.503 157.134 27.6464Z" fill="#2B3988"/>
<path d="M154.893 29.887L115.221 18.452C112.992 17.8096 110.665 19.0956 110.022 21.3245L84.9955 108.151C84.3531 110.38 85.6392 112.708 87.868 113.35L127.54 124.785C129.769 125.428 132.097 124.141 132.739 121.913L157.766 35.086C158.408 32.8571 157.122 30.5295 154.893 29.887Z" fill="#F2F6FF"/>
<path d="M156.924 59.157L149.771 59.1005C146.233 59.0726 143.343 61.918 143.315 65.4559C143.287 68.9938 146.132 71.8845 149.67 71.9124L156.823 71.9688C160.36 71.9967 163.251 69.1513 163.279 65.6134C163.307 62.0755 160.462 59.1849 156.924 59.157Z" fill="#407AFF"/>
<path d="M154.444 72.3981L145.388 72.3267C142.519 72.3041 140.175 74.6114 140.152 77.4804C140.129 80.3493 142.437 82.6934 145.306 82.716L154.362 82.7875C157.231 82.8101 159.575 80.5027 159.597 77.6338C159.62 74.7648 157.313 72.4208 154.444 72.3981Z" fill="#407AFF"/>
<path d="M148.405 83.7656L143.054 83.7234C140.885 83.7063 139.114 85.4503 139.097 87.6188C139.079 89.7874 140.824 91.5592 142.992 91.5763L148.343 91.6185C150.511 91.6356 152.283 89.8915 152.3 87.723C152.317 85.5545 150.573 83.7827 148.405 83.7656Z" fill="#407AFF"/>
<path d="M145.256 85.1866L142.13 85.1619C141.589 85.1576 141.147 85.5929 141.142 86.1341L141.12 88.931C141.116 89.4722 141.551 89.9144 142.092 89.9187L145.219 89.9433C145.76 89.9476 146.202 89.5123 146.206 88.9711L146.228 86.1743C146.233 85.633 145.797 85.1908 145.256 85.1866Z" fill="#F2F6FF"/>
<path d="M148.426 74.7919L144.924 74.7643C143.764 74.7552 142.817 75.6879 142.807 76.8477L142.794 78.5416C142.785 79.7014 143.718 80.649 144.877 80.6581L148.38 80.6858C149.54 80.6949 150.487 79.7622 150.496 78.6024L150.51 76.9084C150.519 75.7487 149.586 74.8011 148.426 74.7919Z" fill="#F2F6FF"/>
<path d="M152.913 61.3556L150.085 61.3333C148.539 61.3211 147.275 62.5648 147.263 64.1111L147.245 66.3351C147.233 67.8814 148.477 69.1449 150.023 69.1571L152.851 69.1794C154.398 69.1916 155.661 67.9479 155.673 66.4016L155.691 64.1776C155.703 62.6313 154.459 61.3678 152.913 61.3556Z" fill="#F2F6FF"/>
</svg>
